<?xml version="1.0" standalone="no"?>
<!DOCTYPE svg PUBLIC "-//W3C//DTD SVG 1.1//EN" "http://www.w3.org/Graphics/SVG/1.1/DTD/svg11.dtd" >
<svg xmlns="http://www.w3.org/2000/svg">
<metadata></metadata>
<defs>
<font id="tonkycaps_awxregular" horiz-adv-x="563" >
<font-face units-per-em="2048" ascent="1638" descent="-410" />
<missing-glyph horiz-adv-x="788" />
<glyph horiz-adv-x="0" />
<glyph unicode="&#xd;" horiz-adv-x="0" />
<glyph horiz-adv-x="0" />
<glyph horiz-adv-x="0" />
<glyph unicode=" "  horiz-adv-x="788" />
<glyph unicode="&#x09;" horiz-adv-x="788" />
<glyph unicode="&#xa0;" horiz-adv-x="788" />
<glyph unicode="!" horiz-adv-x="245" d="M35 49q0 20 15.5 36.5t37.5 16.5q23 0 38 -17.5t15 -35.5q0 -25 -17.5 -38t-35.5 -13q-23 0 -38 16.5t-15 34.5zM35 307v1331q0 23 19.5 35.5t33.5 12.5q23 0 38 -16.5t15 -35.5v-1323q0 -23 -17.5 -37t-35.5 -14q-16 0 -34.5 13.5t-18.5 33.5z" />
<glyph unicode="&#x22;" horiz-adv-x="452" d="M0 1370q0 14 13.5 27.5t30.5 33t30.5 50t13.5 80.5v75q0 20 17.5 35t35.5 15q27 0 40.5 -20t13.5 -38l-2 -78q0 -29 -10.5 -68.5t-29 -76.5t-44 -62.5t-56.5 -25.5q-25 0 -39 16.5t-14 36.5zM172 1370q0 14 13.5 27.5t30.5 33t30.5 50t13.5 80.5v75q0 20 17.5 35t35.5 15 q27 0 40.5 -20t13.5 -38l-2 -78q0 -27 -10.5 -66.5t-29 -76.5t-44 -63.5t-56.5 -26.5q-25 0 -39 16.5t-14 36.5z" />
<glyph unicode="#" horiz-adv-x="1056" d="M0 580q0 16 15.5 34.5t33.5 18.5h166l96 420q-2 0 -3 1t-3 1l-168 -2q-23 0 -36 19.5t-13 35.5t14.5 34.5t32.5 18.5h199q27 115 53.5 246t63.5 258q2 6 14 13.5t18 9.5h21q12 0 29.5 -18.5t13.5 -35.5l-105 -473h242q29 111 52.5 245t64.5 257q4 14 21.5 19.5t33.5 5.5 q12 0 28.5 -16.5t14.5 -37.5l-104 -473h147q18 0 31.5 -19.5t13.5 -33.5q0 -16 -13 -35.5t-36 -19.5h-166l-94 -420h172q23 0 36 -18.5t13 -34.5q0 -12 -11 -33t-34 -21h-199q-14 -61 -26.5 -118.5t-25.5 -117t-27.5 -123t-32.5 -136.5q-4 -10 -17.5 -20.5t-25.5 -10.5h-17 q-16 0 -30.5 18.5t-12.5 32.5l105 475h-242q-29 -111 -54.5 -241.5t-58.5 -253.5q-2 -8 -14 -19.5t-26 -11.5h-17q-14 0 -30.5 16.5t-14.5 34.5l105 475h-146q-20 0 -33.5 18.5t-13.5 35.5zM326 631h241l95 422l-242 2z" />
<glyph unicode="$" horiz-adv-x="1300" d="M35 571q0 25 13 42.5t40 17.5q29 0 41 -15.5t15 -37t2 -42t1 -30.5q8 -35 14.5 -56.5t11.5 -39t12.5 -33t19.5 -35.5q66 -113 166 -169t190 -67q2 2 2 7v204q0 23 18.5 37.5t34.5 14.5t35 -13.5t19 -33.5v-213q2 0 1 -1.5t1 -1.5q12 0 32.5 5.5t41 11.5t35 12t18.5 6 q49 14 98 54.5t89 89.5t65.5 102t29.5 96q2 12 3 19.5t3.5 16.5t3.5 22.5t1 38.5q0 92 -36 178t-98.5 151.5t-146.5 105.5t-182 40q-23 0 -37 1t-26.5 3t-27 6t-34.5 10t-44 20.5t-47.5 34t-42 42t-30.5 45.5q-18 35 -29.5 74.5t-11.5 80.5q2 76 31 141q25 55 78 105.5 t155 67.5v126q0 23 15.5 37.5t37.5 14.5q16 0 35 -12.5t19 -34.5v-131q53 -4 101 -36t85 -76t58.5 -92t19.5 -85q-2 -2 -2 -6.5t2 -26.5q-10 -45 -53 -45q-10 0 -24.5 4t-22.5 20q-2 6 -4.5 21.5t-6.5 36t-10 41t-16 37.5q-35 57 -84 80.5t-97 23.5q-45 0 -82.5 -16.5 t-66.5 -46t-45 -68.5t-16 -82q0 -102 74.5 -159.5t197.5 -53.5q14 0 39.5 -5t44.5 -9q43 -10 91 -33t96 -55.5t91 -76.5t74 -97q43 -74 63.5 -150.5t20.5 -150.5q0 -98 -34 -194.5t-100.5 -176.5t-164.5 -136.5t-229 -72.5v-219q0 -20 -19.5 -32.5t-34.5 -12.5 q-23 0 -38 15.5t-15 37.5v211q-125 14 -223 68.5t-166 134.5t-103.5 176t-35.5 192z" />
<glyph unicode="%" horiz-adv-x="1320" d="M0 1372q0 66 25.5 123t68.5 100t100.5 68t122.5 25q63 0 122 -25t102 -68t68.5 -100t25.5 -123q0 -68 -25.5 -126t-68.5 -100t-101.5 -66.5t-122.5 -24.5q-66 0 -124 24.5t-101 67.5t-67.5 101.5t-24.5 123.5zM106 1372q0 -45 16.5 -83t45.5 -66.5t67.5 -45t81.5 -16.5 t81 16.5t67 44t46 65.5t17 83q0 43 -16 82t-44 67.5t-67 46t-84 17.5q-43 0 -81.5 -17.5t-67.5 -46t-45.5 -66.5t-16.5 -81zM176 51q0 8 34 78t90 183.5t131 260t155 308.5q88 178 189.5 385t205.5 403q4 8 17.5 13.5t23.5 5.5q23 0 38 -17t15 -37q0 -4 -2 -12t-4 -12 q-14 -29 -28.5 -57.5t-30.5 -57.5q-86 -174 -172 -345t-172 -345q-88 -178 -185.5 -371.5t-206.5 -410.5q-6 -12 -20 -17.5t-25 -5.5q-23 0 -38 15.5t-15 35.5zM616 315q0 66 25 123.5t68 100.5t101 67.5t124 24.5t124 -24.5t101 -67.5t67.5 -100.5t24.5 -123.5 q0 -68 -25.5 -125t-68.5 -100t-101.5 -66.5t-121.5 -23.5q-66 0 -124 24.5t-101 67.5t-68 100.5t-25 122.5zM721 315q0 -43 17.5 -81.5t46 -67.5t67.5 -45.5t82 -16.5t81 16.5t66.5 45.5t46 66.5t17.5 82.5q0 43 -16.5 82t-45 68t-67.5 45t-82 16t-82 -16t-67.5 -45t-46 -68 t-17.5 -82z" />
<glyph unicode="&#x26;" horiz-adv-x="1267" d="M0 580q0 94 28.5 180t79 156.5t120 125t153.5 84.5q-55 47 -80 96.5t-33 98.5q-2 10 -3 28.5t-1 22.5q0 66 24.5 123t67.5 100t101.5 68t124.5 25q61 0 117.5 -24t100.5 -64.5t70.5 -97t26.5 -122.5q0 -23 -10 -40t-41 -21q-10 -2 -28.5 10t-20.5 29q-10 111 -70.5 168 t-144.5 57q-86 0 -146.5 -51t-64.5 -160q-2 -55 16.5 -92t44 -59.5t50 -33.5t32.5 -13q23 -8 44.5 -10.5t45.5 -8.5q14 -4 22.5 -19.5t8.5 -29.5q0 -20 -11.5 -30.5t-27.5 -14.5t-35.5 -6t-34.5 -4q-55 -8 -82.5 -16.5t-62.5 -24.5q-76 -37 -128 -88.5t-85 -108.5 t-47.5 -117.5t-14.5 -115.5q0 -100 38 -186.5t102.5 -151t150.5 -101.5t185 -37q98 0 185 37t150.5 101.5t100.5 151.5t37 186q0 80 -25 157q-47 -57 -103.5 -97t-114.5 -65.5t-117.5 -37t-110.5 -11.5q-25 0 -40.5 16.5t-15.5 37.5q0 27 16.5 38t41.5 13q86 4 156.5 27.5 t142.5 82.5q33 27 63.5 67t55 85t39 92t12.5 92q-2 33 9 58.5t44 25.5q25 0 40 -17.5t15 -41.5q0 -59 -10 -105.5t-21.5 -78t-21.5 -50t-10 -24.5q0 -2 4 -12.5t10 -24.5t12.5 -27.5t8.5 -19.5q14 -41 21 -90t7 -92q0 -121 -47 -226.5t-127 -183.5t-185.5 -123t-221.5 -45 q-121 0 -227.5 46t-185.5 125t-124 184.5t-45 224.5z" />
<glyph unicode="'" horiz-adv-x="274" d="M0 1370q0 14 13.5 27.5t30.5 33t30.5 50t13.5 80.5v75q0 20 17.5 35t35.5 15q27 0 40.5 -20t13.5 -38l-2 -78q0 -29 -10.5 -68.5t-29 -76.5t-44 -62.5t-56.5 -25.5q-25 0 -39 16.5t-14 36.5z" />
<glyph unicode="(" horiz-adv-x="571" d="M0 760v109.5t2 64.5t6 52.5t10 72.5q31 205 127 409q2 6 26 51.5t57.5 104.5t71.5 120.5t73 100.5q10 12 32.5 16.5t36.5 -10.5q14 -14 18.5 -31.5t-7.5 -37.5q-59 -90 -110.5 -169t-92.5 -163t-74 -183.5t-53 -228.5q0 -6 -3 -26.5t-6 -45t-5.5 -49t-2.5 -36.5 q-2 -72 2.5 -151t21.5 -168t49 -190.5t87 -217.5q27 -57 55.5 -111.5t55 -100.5t48 -81t34.5 -54q10 -16 6 -31.5t-14 -23.5q-37 -27 -68 -2q-16 14 -33.5 37t-33 48.5t-29 49t-21.5 37.5q-92 160 -153.5 322t-89.5 323q-6 39 -11.5 65.5t-7.5 48t-3 39t-1 40.5z" />
<glyph unicode=")" horiz-adv-x="571" d="M1 -224.5q-3 15.5 5 31.5q12 18 33.5 53.5t49.5 81.5t56.5 100t55.5 112q53 117 84.5 218t49 190t21.5 168t2 151q0 12 -2 36.5t-5 49t-6 45t-3 26.5q-23 129 -54.5 228.5t-72.5 183.5t-92 163t-111 169q-20 39 11 69q16 14 37.5 10.5t31.5 -16.5q33 -39 72 -100.5 t72.5 -120.5t57 -104t25.5 -52q47 -102 80 -204.5t47 -204.5q6 -47 10.5 -72.5t6.5 -52.5t2 -65v-109q0 -23 -1 -40.5t-3 -39t-6 -48t-11 -65.5q-29 -162 -90 -323.5t-155 -321.5q-8 -14 -21.5 -37.5t-29 -49t-33 -48.5t-33.5 -37q-29 -27 -68 2q-10 8 -13 23.5z" />
<glyph unicode="*" horiz-adv-x="704" d="M72 1427q6 57 28 101q20 37 61.5 67.5t112.5 32.5q-10 14 -28.5 20.5t-32.5 6.5q-31 0 -48.5 -14.5t-41.5 -14.5q-23 0 -37 15.5t-14 37.5q0 25 18.5 40.5t42 24.5t47 13t33.5 4q43 0 92 -24.5t78 -79.5q2 8 5 19.5t-1 26.5t-18.5 32.5t-44.5 38.5q-10 6 -19.5 19 t-1.5 38q4 14 18.5 24.5t30.5 8.5q33 -4 59.5 -23.5t45 -46.5t28 -53.5t9.5 -42.5q0 -29 -9.5 -66t-19.5 -57q45 16 53 50t10 63q2 23 21.5 34t32.5 11q16 0 25 -8.5t14.5 -20.5t7.5 -24.5t2 -20.5q0 -23 -9.5 -54.5t-32 -61.5t-61.5 -52.5t-98 -24.5q12 -14 30.5 -20 t31.5 -6q16 0 27 4t20.5 9t19.5 9t23 4q25 0 39 -16t14 -35q0 -25 -18.5 -40t-43 -24.5t-48 -13.5t-33.5 -4q-43 0 -92.5 23.5t-77.5 81.5q-12 -25 -3 -46.5t25 -37.5q18 -18 45 -33q20 -23 14 -53.5t-49 -30.5q-33 0 -59.5 19.5t-45 48t-28.5 58.5t-10 52q0 18 4 37 q4 16 10 33.5t17 34.5q-43 -10 -54.5 -37t-14.5 -53.5t-10 -46t-40 -19.5q-31 0 -41 19.5t-10 43.5z" />
<glyph unicode="+" horiz-adv-x="808" d="M35 578q0 12 12 32.5t33 20.5h219v213q0 23 18.5 36t34.5 13t35 -11.5t19 -33.5v-217h219q18 0 31.5 -19.5t13.5 -33.5q0 -16 -13.5 -35t-33.5 -19h-217v-215q0 -23 -17.5 -36t-36.5 -13q-20 0 -36.5 15.5t-16.5 35.5v213h-217q-20 0 -33.5 18.5t-13.5 35.5z" />
<glyph unicode="," horiz-adv-x="262" d="M0 -209q0 14 13.5 27.5t30.5 32t30.5 49t13.5 80.5v75q0 20 17.5 34.5t35.5 14.5q27 0 40.5 -19.5t13.5 -39.5l-2 -74q4 -27 -6.5 -66.5t-30 -77.5t-46 -64.5t-57.5 -26.5q-25 0 -39 16.5t-14 38.5z" />
<glyph unicode="-" d="M0 575q0 16 12.5 36t34.5 20h365q18 0 32.5 -18.5t14.5 -34.5q0 -14 -13.5 -34t-33.5 -20h-365q-23 0 -35 19.5t-12 31.5z" />
<glyph unicode="." horiz-adv-x="212" d="M37 53q0 23 15.5 37t37.5 14q23 0 37 -14t14 -37t-14 -38t-37 -15t-38 15t-15 38z" />
<glyph unicode="/" horiz-adv-x="1013" d="M51 0l336 754h135l-334 -754h-137zM430 848l336 756h137l-338 -756h-135z" />
<glyph unicode="0" horiz-adv-x="1267" d="M0 541v606q0 45 11.5 88t25.5 79t28.5 61.5t18.5 33.5q23 39 57.5 77t74.5 70.5t81 56t76 36.5q37 12 63.5 20t50 12.5t45 5.5t50.5 1q117 0 222 -45.5t185 -123t127 -181t47 -222.5v-547q0 -121 -48 -224t-128 -180t-185.5 -121t-219.5 -44q-55 0 -112.5 10t-115 35 t-114 65t-107.5 99q-29 35 -55.5 81t-40.5 89q-10 31 -23.5 80t-13.5 82zM106 569q0 -94 39 -178t104.5 -147.5t151.5 -100.5t181 -37q88 0 173 34t151.5 94.5t107.5 144.5t41 182v565q0 96 -41 180.5t-106.5 145.5t-151.5 96t-174 35q-94 0 -180.5 -37t-152 -100.5 t-104.5 -148.5t-39 -181v-547z" />
<glyph unicode="1" horiz-adv-x="387" d="M0 1458q0 16 5 24.5t15 18.5q2 2 31 32t65 64.5t68.5 63.5t44.5 29q23 0 39.5 -16.5t16.5 -39.5v-1583q0 -23 -16.5 -37t-39.5 -14q-18 0 -33.5 11.5t-19.5 31.5v1462q-35 -29 -63.5 -63.5t-59.5 -34.5q-23 0 -38 14.5t-15 36.5z" />
<glyph unicode="2" horiz-adv-x="1232" d="M0 1120q0 119 48 223.5t128 180t185.5 120t220.5 44.5q123 0 228 -46.5t184 -126t124 -185t45 -224.5t-57 -247t-197 -234q-23 -16 -49 -40t-51 -44q-129 -109 -259 -216.5t-261 -218.5h817q29 -4 43 -18t14 -37q0 -16 -8 -33.5t-35 -17.5h-989q-20 0 -31.5 19.5 t-11.5 31.5q0 14 13.5 30.5t34 34t43 35t40.5 33.5q14 12 55 47t98.5 82t126 104.5t140.5 118t140.5 118t125.5 106.5q12 10 27.5 26.5t25.5 32.5q55 78 76 145.5t21 141.5q0 100 -37 187t-101.5 151.5t-150.5 101.5t-184 37q-92 0 -195.5 -43t-185.5 -149 q-39 -51 -57.5 -103.5t-30.5 -105.5q-4 -18 -4 -40t-4.5 -42.5t-15.5 -33.5t-36 -13q-37 0 -45 25.5t-8 41.5z" />
<glyph unicode="3" horiz-adv-x="1230" d="M0 541v49q6 20 23.5 31.5t36 11.5t32.5 -11.5t14 -31.5q0 -104 38 -191.5t100.5 -151t142.5 -100t162 -41.5q111 -6 205 34t161.5 111t104.5 163t35 190q0 70 -31 141.5t-81 133t-113.5 105.5t-131.5 54q-16 4 -38.5 9.5t-45.5 5.5q-53 2 -70.5 35.5t3.5 60.5 q23 31 59.5 76t84.5 101t103.5 120.5t112.5 134.5l-686 2q-25 6 -36 23.5t-8 36t17.5 33t38.5 14.5h785q14 2 27.5 -6.5t20.5 -22.5t7 -29.5t-8 -25.5q-96 -113 -189.5 -226.5t-187.5 -226.5q115 -20 203 -77.5t148.5 -135.5t91 -166t30.5 -170q0 -129 -46 -239.5 t-126 -191.5t-187.5 -127t-232.5 -46q-100 0 -201.5 45t-183.5 121t-133 173t-51 202z" />
<glyph unicode="4" horiz-adv-x="669" d="M0 580q0 8 9 37.5t20.5 62.5t21.5 60.5t10 29.5q10 31 25.5 76t26.5 80q25 74 56.5 171t64 198.5t65.5 197.5t61 170q4 10 19.5 17.5t26.5 7.5q23 0 38 -14.5t15 -37.5v-1003h90q23 0 37 -18.5t14 -34.5t-14.5 -35t-30.5 -19h-96v-477q0 -23 -17.5 -36t-35.5 -13 q-14 0 -34 11.5t-20 29.5v485h-305q-23 0 -35 18.5t-12 35.5zM127 633h225v672z" />
<glyph unicode="5" horiz-adv-x="1232" d="M0 565q0 20 9 44t44 24q10 0 29.5 -8.5t19.5 -24.5q6 -117 47 -209t108 -155.5t151 -96.5t174 -33q100 0 187 37t150.5 101.5t99.5 150.5t36 185q0 84 -33 167.5t-91.5 151.5t-139 111t-177.5 43h-475q-10 0 -30.5 12t-20.5 33v547q0 12 16.5 27.5t30.5 15.5h895 q20 0 32.5 -19.5t12.5 -34.5q0 -12 -13 -31.5t-32 -19.5h-835v-422h419q18 0 45 -5t53.5 -11t50 -13.5t34.5 -13.5q53 -23 85.5 -41t67.5 -49q61 -51 102.5 -107.5t66 -113.5t34.5 -115.5t10 -111.5q0 -123 -46 -228.5t-126 -183.5t-185.5 -123t-223.5 -45q-115 0 -220.5 44 t-185.5 120t-128 179t-48 222z" />
<glyph unicode="6" horiz-adv-x="1232" d="M0 580q0 45 7 91t28 105q10 33 31.5 75t48.5 75q25 31 84 105.5t142 178t182.5 224t203.5 243.5q4 4 23.5 11.5t44.5 -17.5q10 -10 15 -28.5t-11 -38.5q-8 -8 -14.5 -16.5t-12.5 -16.5q-8 -8 -14 -19q-31 -31 -71 -80t-84 -105t-90 -115.5t-87 -110.5q23 4 60.5 12 t97.5 8q121 0 226 -46t184 -126t124 -185t45 -224q0 -123 -46 -228.5t-126 -183.5t-185.5 -123t-223.5 -45q-121 0 -227.5 46t-185.5 125t-124 184.5t-45 224.5zM106 580q0 -98 37 -184.5t101.5 -151t151.5 -101.5t186 -37q98 0 184 37t150.5 100.5t101.5 150t37 186.5 q0 98 -37 184t-100.5 150.5t-149.5 101.5t-186 37q-96 0 -183.5 -37t-152 -100.5t-102.5 -150.5t-38 -185z" />
<glyph unicode="7" horiz-adv-x="526" d="M0 51l340 1532h-291q-29 -2 -39 19.5t-10 31.5q0 14 11.5 34t35.5 20h367q20 0 32.5 -19t12.5 -35q0 -2 -9.5 -44t-24.5 -111.5t-34.5 -157.5t-39 -180t-40 -180.5t-35.5 -155.5q-45 -197 -89 -388.5t-87 -387.5q-4 -16 -20.5 -22.5t-26.5 -6.5q-18 0 -34.5 11.5 t-18.5 39.5z" />
<glyph unicode="8" horiz-adv-x="1228" d="M0 641q0 98 28.5 183t80 156t121 123t149.5 83q-53 47 -78 97t-33 99q-2 10 -3 29t-1 23q0 66 24.5 124t67.5 101t101.5 67.5t124.5 24.5t124 -25.5t101 -68.5t67.5 -101.5t24.5 -121.5q0 -49 -12.5 -88t-30.5 -70t-38.5 -52.5t-35.5 -35.5q43 -18 93.5 -46t95.5 -69 q106 -102 149 -214t43 -218q0 -121 -46 -226.5t-126 -184t-185.5 -125t-223.5 -46.5q-121 0 -227.5 46.5t-185.5 126t-124 185t-45 224.5zM106 641q0 -98 37 -185t101.5 -151.5t151.5 -101.5t186 -37q98 0 184 37t150.5 101.5t101.5 151.5t37 185t-37 184t-101.5 150.5 t-150.5 102.5t-184 38t-185.5 -38t-152 -102.5t-101.5 -150.5t-37 -184zM371 1434q0 -43 16 -82t45 -68t68 -45t82 -16t80.5 16t66.5 44t46.5 67t17.5 84q0 43 -16.5 81.5t-45.5 66.5t-67.5 44t-81.5 16t-82 -16t-68 -44t-45 -66.5t-16 -81.5z" />
<glyph unicode="9" horiz-adv-x="1232" d="M0 1108q0 121 46 226.5t125 184t184.5 124t226.5 45.5q123 0 228 -46.5t184 -126t124 -185t45 -224.5q0 -45 -8 -95t-27 -104q-14 -35 -34.5 -75.5t-53.5 -79.5q-53 -68 -125.5 -158t-152.5 -188.5t-163 -201t-159 -194.5q-4 -4 -14 -7t-20 -3q-23 0 -38.5 14.5 t-15.5 36.5q0 20 16.5 39t39.5 47q82 104 164.5 204.5t166.5 203.5q-25 -4 -63.5 -11.5t-97.5 -7.5q-121 0 -226.5 47.5t-183.5 127t-123 185t-45 222.5zM106 1108q0 -98 37 -185t101.5 -151.5t151.5 -101.5t186 -37q98 0 184 37t150.5 101.5t101.5 150.5t37 186 q0 96 -37 183t-100.5 151.5t-149.5 102.5t-186 38q-96 0 -183.5 -38t-152 -102.5t-102.5 -150.5t-38 -184z" />
<glyph unicode=":" horiz-adv-x="212" d="M37 53q0 23 15.5 37t37.5 14q23 0 37 -14t14 -37t-14 -38t-37 -15t-38 15t-15 38zM37 840q0 23 15.5 37t37.5 14q23 0 37 -14.5t14 -36.5q0 -23 -14 -38.5t-37 -15.5t-38 15.5t-15 38.5z" />
<glyph unicode=";" horiz-adv-x="262" d="M0 -209q0 14 5 22.5t12.5 14.5t17.5 13t22 22q16 18 23.5 58t7.5 59v75q0 20 17.5 34.5t35.5 14.5q27 0 40.5 -19.5t13.5 -39.5l-2 -74q4 -27 -6.5 -66.5t-30 -77.5t-46 -64.5t-57.5 -26.5q-25 0 -39 16.5t-14 38.5zM88 842q0 23 16.5 38t36.5 15q23 0 38.5 -17.5 t15.5 -35.5q0 -23 -16.5 -38.5t-37.5 -15.5q-23 0 -38 17.5t-15 36.5z" />
<glyph unicode="&#x3c;" horiz-adv-x="946" d="M35 580q0 18 14 31.5t32.5 22.5t38 14t30.5 11q14 6 66 27t122 46.5t147.5 54t144 53t111.5 40t52 15.5q23 0 38 -15.5t15 -37.5q0 -18 -9.5 -29.5t-22.5 -18t-28.5 -10.5t-27.5 -10q-129 -51 -258 -98t-260 -96q57 -23 127.5 -49.5t147.5 -54t155 -57.5t149 -59 q10 -4 18.5 -18.5t8.5 -26.5q0 -23 -16.5 -38t-36.5 -15q-4 0 -24.5 7t-44.5 15.5t-43 15.5t-24 9q-68 25 -143.5 53.5t-152 57.5t-151.5 57.5t-138 52.5q-23 10 -30 24.5t-7 25.5z" />
<glyph unicode="=" horiz-adv-x="808" d="M35 401q0 16 13 35t36 19h537q23 0 36 -19t13 -35q0 -14 -12.5 -33.5t-32.5 -19.5h-545q-18 0 -31.5 18.5t-13.5 34.5zM35 754q0 16 13 33.5t34 17.5h541q20 0 33.5 -17.5t13.5 -33.5t-13.5 -35t-33.5 -19h-541q-20 0 -33.5 18.5t-13.5 35.5z" />
<glyph unicode="&#x3e;" horiz-adv-x="946" d="M35 315q0 12 8 26.5t18 18.5q72 29 150 59t154.5 57.5t146.5 54t127 49.5q-129 49 -258 96t-258 98q-12 6 -27.5 10t-29 10.5t-22.5 17.5t-9 30q0 23 15.5 38t37.5 15q6 0 51 -15.5t111.5 -40t144.5 -53t147.5 -54t121 -46t67.5 -27.5q10 -6 29.5 -11t38 -14t33 -22.5 t14.5 -31.5q0 -10 -7.5 -24.5t-29.5 -25.5q-66 -25 -139.5 -53t-150.5 -57t-152.5 -57.5t-143.5 -53.5q-4 -2 -23.5 -9t-43 -15.5t-44 -15.5t-24.5 -7q-20 0 -36.5 15t-16.5 38z" />
<glyph unicode="?" d="M35 49q0 23 16.5 38t36.5 15q23 0 38 -16.5t15 -36.5q0 -23 -15 -37t-38 -14t-38 16.5t-15 34.5zM35 307v277q4 8 6 19t16 18q37 16 76 42.5t75 58.5t66.5 68.5t49.5 73.5q27 51 38 81t17 67q4 16 7 43.5t3 50.5q-4 96 -41 186q-31 78 -97.5 160t-193.5 139q-4 0 -7 4 t-5 9q-4 6 -7 15t-3 13q0 23 15.5 38.5t37.5 15.5q23 -2 60.5 -25t72.5 -47q61 -43 110.5 -98.5t84.5 -118t54 -129t24 -129.5v-33q0 -94 -27 -178t-74 -156t-111.5 -129t-140.5 -98v-232q0 -23 -16 -38t-37 -15q-16 0 -34.5 13.5t-18.5 33.5z" />
<glyph unicode="@" horiz-adv-x="1857" d="M35 844q2 121 27.5 213t56.5 156.5t58.5 101.5t35.5 47q121 156 297 241t371 85q162 0 309 -58.5t268 -169.5q59 -55 103.5 -115.5t72.5 -119.5q45 -88 65.5 -176t24.5 -177l2 -309q-4 -16 -8 -37.5t-12 -40.5q-25 -59 -84 -97t-125 -38q-59 0 -115.5 33t-85.5 86 q-10 20 -15 37.5t-9 34.5q-86 -106 -190.5 -148.5t-200.5 -42.5q-102 0 -192.5 39t-157 105.5t-105.5 156.5t-39 193q0 102 39 192t106.5 157t157.5 104.5t191 37.5q94 0 196.5 -41t188.5 -143l2 133q4 29 20.5 40t32.5 11q18 0 34.5 -13t16.5 -36v-713q0 -51 40 -84.5 t85 -33.5q49 0 86 37.5t37 85.5v278q0 96 -21.5 175t-68.5 165q-29 53 -64.5 100t-89.5 95q-115 104 -246 148t-249 44q-154 0 -289 -58.5t-234.5 -158.5t-158 -235.5t-58.5 -286.5q0 -154 58.5 -289t159 -235.5t235.5 -158t287 -57.5q74 0 126 9.5t87.5 21.5t58.5 21.5 t37 9.5q23 0 37 -16.5t14 -34.5q0 -37 -52 -59.5t-116.5 -35t-122 -16.5t-69.5 -4q-176 0 -331 66.5t-270.5 180t-182 267.5t-62.5 330zM494 844q0 -80 29.5 -150.5t81.5 -124t123 -84t153 -30.5q80 0 150.5 30.5t122.5 83t83 124t31 151.5q0 78 -30 148.5t-82 123.5 t-122.5 84t-152.5 31q-80 0 -151 -31t-123 -83t-82.5 -122.5t-30.5 -150.5z" />
<glyph unicode="A" horiz-adv-x="1757" d="M0 51q0 4 21.5 51.5t57.5 119t80 161.5t89 180t87 173t73 145q39 80 87 175t100 197.5t104.5 208t101.5 203.5q6 10 20.5 16.5t24.5 6.5q6 0 19.5 -3.5t23.5 -19.5q102 -195 198.5 -390.5t194.5 -393.5q12 -27 48 -97.5t81 -162t94 -189.5t90 -181t68 -139.5t27 -60.5 q0 -23 -15.5 -37t-38.5 -14q-6 0 -12 2q-4 2 -10 3t-8 3q-14 10 -21.5 27.5t-15.5 34.5q-59 113 -114.5 227.5t-115.5 228.5h-989q-31 -63 -65.5 -132.5t-68.5 -137.5l-64.5 -129t-55.5 -107q-6 -10 -19.5 -15t-23.5 -5q-25 0 -39 16.5t-14 34.5zM403 633h883l-440 883z" />
<glyph unicode="B" horiz-adv-x="538" d="M0 43v1602q0 21 20 33q17 11 29 10h4q25 -2 53.5 -20.5t55 -43.5t47 -50.5t31.5 -41.5q29 -51 36 -88t7 -84q0 -51 -34 -125t-91 -125q80 -53 137 -117.5t94 -134.5t53.5 -141t16.5 -137q0 -111 -41 -215q-25 -61 -76 -126t-107.5 -118t-107.5 -87t-74 -34 q-16 0 -34.5 12.5t-18.5 30.5zM106 143q135 92 190.5 209t55.5 228q0 53 -13 110.5t-42 114.5t-76 110.5t-115 100.5v-873zM106 1210q20 18 37 43q13 23 25 55q10 27 10 64v14q-2 31 -19.5 72t-52.5 74v-322z" />
<glyph unicode="C" horiz-adv-x="1527" d="M0 844q0 174 66.5 327.5t181 268t268.5 181.5t330 67q78 0 161 -17.5t162.5 -49.5t151.5 -79t125 -106q8 -8 12 -25q1 -6 1 -12q1 -17 -13 -30q-18 -17 -41 -17q-8 0 -16.5 1t-14.5 7q-129 123 -263 173t-265 50q-154 0 -289 -58.5t-235 -158.5q-102 -100 -160 -236 q-57 -131 -56 -276v-10q2 -152 59.5 -287t157 -235.5t233.5 -159t290 -58.5q127 0 267 51.5t263 172.5q4 4 14.5 6t14.5 2q23 0 38 -15t15 -38q0 -16 -12 -33t-28.5 -32t-36 -28.5t-31.5 -23.5q-104 -80 -238.5 -123t-265.5 -43q-176 0 -331 66.5t-269.5 181t-180 268.5 t-65.5 328z" />
<glyph unicode="D" horiz-adv-x="530" d="M0 43v1602q0 20 19.5 31.5t33.5 11.5q29 0 73 -41t85 -91.5t71.5 -95.5t34.5 -51q31 -59 50.5 -103t33 -84t22.5 -80t19 -87q4 -20 8.5 -49t6.5 -58.5t3 -57.5t1 -48q0 -16 -1 -39t-2 -49.5t-4 -52t-8 -46.5q-14 -86 -39.5 -174t-72.5 -174q-16 -29 -42 -68.5t-54 -76.5 q-12 -16 -36 -44t-51.5 -53.5t-54 -45t-43.5 -19.5q-14 0 -33.5 10t-19.5 33zM106 172q39 31 81 98.5t78 146.5t58.5 154.5t22.5 124.5l10 146q0 37 -3 72.5t-7 70.5q-18 131 -69.5 265t-170.5 266v-1344z" />
<glyph unicode="E" d="M0 41v1604q0 16 17.5 29.5t31.5 13.5h363q18 0 32.5 -18.5t14.5 -35.5q0 -10 -11.5 -30.5t-33.5 -20.5h-308v-424h224q20 0 30.5 -20.5t10.5 -30.5q0 -14 -12.5 -33.5t-30.5 -19.5h-222v-951h306q20 0 33.5 -18.5t13.5 -34.5t-13.5 -33.5t-33.5 -17.5h-365 q-10 0 -28.5 13.5t-18.5 27.5z" />
<glyph unicode="F" horiz-adv-x="528" d="M0 41v1604q0 16 17.5 29.5t31.5 13.5h361q23 0 36 -19t13 -35t-13.5 -33.5t-33.5 -17.5h-306v-952h222q23 0 33 -20.5t10 -30.5q0 -20 -15.5 -37t-36.5 -17h-213v-483q0 -23 -19 -33t-34 -10q-12 0 -32.5 10t-20.5 31z" />
<glyph unicode="G" horiz-adv-x="1562" d="M0 844q0 176 66.5 329.5t181 268t268.5 180.5t330 66q166 0 326.5 -66t275.5 -188q4 -4 8 -14.5t4 -16.5q0 -20 -16.5 -36.5t-38.5 -16.5q-20 0 -31 10q-129 123 -264 173t-264 50q-154 0 -289 -58.5t-234.5 -158.5t-158 -235.5t-58.5 -286.5q0 -154 58.5 -289 t159 -235.5t235.5 -158t287 -57.5q125 0 254 45.5t252 157.5v219h-564q-20 0 -36.5 16.5t-16.5 37.5q0 10 12.5 30.5t30.5 20.5h639q16 0 29.5 -19.5t13.5 -29.5v-301q0 -23 -35.5 -55.5t-81 -63.5t-84 -54.5t-47.5 -25.5q-53 -18 -95 -33.5t-83 -27t-86 -16.5t-102 -5 q-176 0 -330 66.5t-268.5 180t-181 267.5t-66.5 330z" />
<glyph unicode="H" d="M0 41v1606q0 16 20.5 29.5t32.5 13.5q14 0 33.5 -13.5t19.5 -34.5v-481h246v484q0 20 21.5 32.5t32.5 12.5q12 0 32.5 -12.5t20.5 -32.5v-1602q0 -20 -21.5 -31.5t-31.5 -11.5q-14 0 -34 12.5t-20 30.5v1012h-246v-1010q0 -20 -19 -32.5t-34 -12.5q-12 0 -32.5 11.5 t-20.5 29.5z" />
<glyph unicode="I" horiz-adv-x="212" d="M0 63v1571q0 25 17.5 39.5t35.5 14.5q10 0 30.5 -11.5t22.5 -42.5v-1573q-2 -39 -20 -50t-35 -11q-18 0 -34.5 13.5t-16.5 49.5z" />
<glyph unicode="J" d="M0 219q0 25 12.5 43.5t40.5 18.5q29 0 40 -20.5t16 -55.5q6 -47 43.5 -74t76.5 -27q20 0 42 8.5t40.5 23t29.5 36t11 45.5v1419q0 23 16.5 37.5t37.5 14.5q18 0 35.5 -14.5t17.5 -37.5v-1419q0 -47 -20.5 -87t-53.5 -68.5t-74 -45t-82 -16.5q-43 0 -85 16.5t-73.5 46 t-51 69.5t-19.5 87z" />
<glyph unicode="K" horiz-adv-x="561" d="M0 41v1604q0 20 19.5 31.5t33.5 11.5q16 0 32.5 -11.5t20.5 -36.5v-307q43 84 83 166t85 166q6 13 30 21q9 3 18 3q13 0 22 -8q16 -12 23.5 -30.5t-7.5 -40.5q-82 -170 -142 -290t-107 -218q0 -2 9 -31t23.5 -72t32 -94t33.5 -100t29.5 -89t19.5 -59q14 -41 34.5 -101 t43 -125.5t44 -132.5t39 -120t29 -88t11.5 -39q0 -20 -15.5 -35.5t-37.5 -15.5q-8 0 -24.5 4t-23.5 21q-66 188 -126 375.5t-126 377.5v-731q-4 -23 -18 -35t-35 -12q-14 0 -33.5 11.5t-19.5 29.5z" />
<glyph unicode="L" horiz-adv-x="528" d="M0 41v1604q0 18 18.5 30.5t34.5 12.5t34.5 -12.5t18.5 -33.5v-1538h308q20 0 32.5 -19.5t12.5 -33.5q0 -16 -13.5 -33.5t-33.5 -17.5h-365q-12 0 -29.5 12.5t-17.5 28.5z" />
<glyph unicode="M" horiz-adv-x="1796" d="M0 43v1602q0 20 19.5 31.5t33.5 11.5q8 0 21.5 -4.5t19.5 -14.5q193 -375 377 -748.5t375 -748.5q188 373 371.5 742.5t371.5 742.5q6 12 23 24q6 4 17 5.5t18 1.5q14 0 28.5 -16.5t14.5 -29.5v-1599q0 -18 -17.5 -30.5t-34.5 -12.5q-20 0 -36.5 12.5t-16.5 32.5l-2 1362 q-178 -348 -348 -691t-344 -685q-4 -6 -15.5 -18.5t-29.5 -12.5q-14 0 -26.5 5t-20.5 22q-178 350 -347 691t-346 691v-1366q-10 -43 -53 -43q-14 0 -33.5 10t-19.5 33z" />
<glyph unicode="N" horiz-adv-x="1796" d="M0 43v1604q0 18 20.5 29.5t34.5 11.5q18 0 35 -13q184 -182 365.5 -364.5t363.5 -364.5q193 -193 382.5 -383t381.5 -383l2 1462q4 25 20.5 35.5t32.5 10.5t34 -12.5t18 -30.5v-1602q0 -14 -16.5 -28.5t-26.5 -14.5h-19q-4 0 -55 48t-127 122t-166 163t-172 172 t-147.5 148.5t-92.5 91.5q-193 190 -381 380t-378 380l-3 -1460q0 -14 -15 -29.5t-28 -15.5q-18 0 -40.5 10t-22.5 33z" />
<glyph unicode="O" horiz-adv-x="1759" d="M0 844q6 184 73.5 339.5t180.5 267.5t264.5 174.5t327.5 62.5t329.5 -67t268.5 -182.5t180.5 -269t65.5 -325.5q0 -176 -67 -331t-182.5 -268.5t-269 -179t-325.5 -65.5q-176 0 -332 66.5t-272 179.5q-114 114 -180 268q-62 145 -62 310v20zM104 821q0 -135 57.5 -264 t158 -229.5t236.5 -162t290 -61.5q152 0 286 57.5t235 157t159.5 234.5t58.5 291q0 152 -57.5 286t-157.5 235t-235.5 159.5t-288.5 58.5q-141 0 -274.5 -50t-237 -147.5t-166 -239.5t-64.5 -325z" />
<glyph unicode="P" horiz-adv-x="528" d="M0 49v1604q0 18 18.5 30.5t34.5 12.5q20 0 53 -19.5t66 -43t58.5 -45t31.5 -25.5q92 -94 135 -186.5t56 -184.5q4 -18 5 -46t1 -32q0 -94 -28 -178t-75 -155.5t-111.5 -130t-138.5 -97.5v-502q0 -20 -18 -32.5t-35 -12.5q-12 0 -32.5 10.5t-20.5 32.5zM106 678 q133 92 189.5 208.5t56.5 227.5q0 63 -18.5 127t-50 122t-76.5 106.5t-101 80.5v-872z" />
<glyph unicode="Q" horiz-adv-x="1761" d="M0 811v68q0 111 30.5 208t79 176.5t104.5 142t108 103.5q231 182 512 182q20 0 40 -1q51 -2 121 -14.5t146 -40t152.5 -72.5t144.5 -113q76 -78 124 -155.5t75.5 -151.5t39 -139.5t15.5 -116.5q2 -26 2 -52q0 -141 -47 -269q-55 -150 -166 -281q51 -51 96 -96.5t92 -98.5 q23 -25 18.5 -51.5t-26.5 -36.5q-11 -3 -23 -3h-6q-16 1 -26 11q-51 47 -100.5 98.5t-98.5 100.5q-111 -92 -249 -150.5t-284 -58.5h-55q-158 0 -308.5 66.5t-260.5 177.5q-55 53 -100.5 119.5t-79 139t-52 151.5t-18.5 157zM106 807q6 -141 63.5 -264t156.5 -226 q111 -115 254 -164t299 -49q121 0 241.5 51.5t210.5 129.5l-131 131l-131 131q-6 6 -7 12t-3 10q-6 16 7 38t34 26q10 2 22.5 -1t18.5 -7q68 -66 133 -132.5t131 -132.5q59 63 96 132t56.5 135.5t24.5 131.5q4 46 4 90q0 17 -1 34q-2 63 -20.5 130.5t-48 133t-68.5 123 t-82 100.5q-68 63 -129 104.5t-120.5 64t-118 31.5t-119.5 13q-18 1 -36 1q-116 0 -224 -34q-125 -39 -232 -125q-47 -39 -99 -95t-94 -132t-68 -173q-21 -79 -21 -173q0 -22 1 -45z" />
<glyph unicode="R" horiz-adv-x="532" d="M0 49v1587q0 18 16.5 35t38.5 17q18 0 52 -17.5t72 -44.5t75 -61.5t61 -67.5q66 -86 105 -182t39 -209q0 -41 -3 -59.5t-5 -47.5q-6 -55 -33 -117.5t-69 -123t-97 -112.5t-121 -87q45 -72 102.5 -156t107.5 -159.5t84 -130t34 -62.5q0 -23 -14.5 -37t-36.5 -14 q-10 0 -23.5 4t-17.5 12q-66 96 -129.5 192.5t-128.5 192.5v-354q-4 -27 -20.5 -37t-33.5 -10q-20 0 -37.5 13.5t-17.5 35.5zM109 670q68 47 113.5 100t75.5 110.5t43 115t13 112.5q-2 78 -26 156q-23 66 -73 141.5t-146 138.5v-874z" />
<glyph unicode="S" horiz-adv-x="1234" d="M0 578q0 23 11.5 43t41.5 20q29 0 41 -19.5t12 -41.5q0 -88 36 -172t97.5 -149.5t143.5 -105.5t172 -40h53q92 0 174 41t143.5 107.5t96.5 151.5t35 175q0 92 -36 178t-98.5 152.5t-146.5 105.5t-182 39h-29q-61 0 -116.5 26.5t-96.5 71.5t-64.5 102.5t-23.5 116.5 q0 66 25.5 124.5t68.5 101.5t100.5 67.5t123.5 24.5q63 0 119.5 -23.5t99.5 -63.5t68.5 -95.5t29.5 -116.5q2 -10 1 -13.5t-1 -5.5q0 -23 -15.5 -38t-37.5 -15q-31 0 -47 27q-6 12 -7 24.5t-1 34.5q0 37 -19.5 68.5t-50.5 56.5t-68 39t-71 14q-45 0 -83 -16t-67 -45t-45 -68 t-16 -82q0 -80 30.5 -121.5t67.5 -62.5q43 -23 98 -27h43q106 -2 205.5 -47t176.5 -119.5t124 -174t47 -210.5v-63q0 -115 -50 -214t-132 -174t-186.5 -118t-212.5 -43q-117 0 -222.5 45t-185.5 123t-127 181.5t-47 222.5z" />
<glyph unicode="T" horiz-adv-x="528" d="M0 1636q0 18 13.5 35t35.5 17h361q23 0 36 -19t13 -35t-13.5 -33.5t-33.5 -17.5h-129v-1538q0 -20 -18.5 -32.5t-35.5 -12.5q-14 0 -33.5 11.5t-19.5 31.5v1540h-131q-23 0 -34 19.5t-11 33.5z" />
<glyph unicode="U" horiz-adv-x="565" d="M0 211v1434q0 23 19.5 34t33.5 11q16 0 34.5 -11.5t18.5 -33.5v-1422q0 -53 38 -86t85 -33q45 0 84 33t39 84v1421q0 23 18.5 35.5t35.5 12.5q18 0 35.5 -13.5t17.5 -36.5v-1421q0 -47 -19.5 -88t-52.5 -69.5t-74 -45t-84 -16.5q-47 0 -89 18.5t-72.5 47t-49 66.5 t-18.5 79z" />
<glyph unicode="V" horiz-adv-x="528" d="M0 1632q0 23 14.5 39.5t38.5 16.5q20 0 31.5 -9.5t16.5 -24t6.5 -28.5t1.5 -22l120 -1067l121 1097q0 23 16.5 38.5t39.5 15.5q25 0 39 -17t14 -37l-174 -1581q0 -23 -17.5 -38t-38.5 -15q-25 0 -39 15.5t-14 37.5z" />
<glyph unicode="W" horiz-adv-x="1759" d="M0 1634q0 20 15.5 36t37.5 16q10 0 24.5 -3.5t18.5 -17.5q20 -76 58.5 -223.5t85.5 -338t101 -406.5t108 -427q92 344 175 692.5t173 692.5q4 14 21.5 22.5t27.5 8.5t27.5 -7.5t21.5 -23.5q88 -348 173 -691t173 -694q41 154 78 305.5t76 305.5q47 195 96 386t96 386 q4 14 19.5 23.5t29.5 9.5q23 0 39.5 -17t14.5 -35q0 -12 -13.5 -70.5t-35 -142.5t-45 -180t-47 -184t-41 -158t-23.5 -96q-47 -190 -97.5 -393t-99.5 -387q-4 -10 -17.5 -17.5t-29.5 -7.5t-29.5 5t-17.5 22q-92 346 -176 692t-172 696q-14 -49 -30.5 -117.5t-31.5 -121.5 q-25 -96 -52 -210t-56 -232t-57.5 -230.5t-53 -208.5t-43 -168t-28.5 -105q-4 -10 -18.5 -16t-26.5 -6q-10 0 -24.5 4t-21.5 21q-10 31 -32.5 120.5t-51 204.5t-59.5 238t-55 221q-45 182 -91 362.5t-89 362.5q-6 23 -15.5 51.5t-9.5 50.5z" />
<glyph unicode="X" horiz-adv-x="645" d="M0 51l236 1057l-119 526q4 27 19.5 40.5t33.5 13.5q31 0 43 -23t16 -51q6 -41 19 -80q10 -41 17 -81t24 -99q10 41 17 74.5t18 80.5q4 25 12 52.5t12 56.5q4 31 17.5 50.5t40.5 19.5q18 0 35.5 -14.5t17.5 -39.5l-117 -528l233 -1055q-2 -25 -18 -38t-35 -13 q-10 0 -25.5 9t-19.5 26q-6 25 -19.5 78t-29.5 123.5t-34.5 153.5t-37 167t-36 163t-31.5 140q-37 -150 -82 -349.5t-107 -471.5q-4 -16 -19 -27.5t-28 -11.5q-16 0 -33.5 11.5t-19.5 39.5z" />
<glyph unicode="Y" horiz-adv-x="526" d="M0 1632q0 23 16.5 38.5t38.5 15.5q8 0 23.5 -6.5t19.5 -18.5q12 -55 25.5 -137t30 -180.5t35 -211t38.5 -229.5q41 223 70 412.5t59 341.5q4 12 21.5 20.5t28.5 8.5q18 0 34.5 -14.5t18.5 -37.5l-176 -1056v-535q0 -23 -20.5 -34t-33.5 -11q-23 0 -39 16.5t-16 34.5v529 l-160 974q-4 20 -9 48t-5 32z" />
<glyph unicode="Z" d="M0 49l340 1528l-4 4h-295q-20 0 -30.5 21.5t-10.5 31.5q0 20 16.5 36t36.5 16h355q16 0 31.5 -12.5t19.5 -39.5l-340 -1532h293q18 0 32.5 -18.5t14.5 -34.5q0 -10 -11.5 -30.5t-31.5 -20.5h-371q-14 0 -29.5 16.5t-15.5 34.5z" />
<glyph unicode="[" horiz-adv-x="471" d="M0 -219v2038q0 16 17.5 30.5t29.5 14.5h277q18 0 33.5 -18.5t15.5 -35.5q0 -14 -14.5 -33.5t-32.5 -19.5h-220v-1915h220q18 0 32.5 -18.5t14.5 -34.5q0 -12 -13.5 -32.5t-33.5 -20.5h-281q-10 0 -27.5 15.5t-17.5 29.5z" />
<glyph unicode="\" horiz-adv-x="1013" d="M51 1604h137l336 -756h-135zM432 754h135l336 -754h-137z" />
<glyph unicode="]" horiz-adv-x="471" d="M0 -211q0 16 14.5 34.5t32.5 18.5h219v1915h-219q-18 0 -32.5 19.5t-14.5 33.5q0 16 15.5 35t33.5 19h277q12 0 29.5 -14.5t17.5 -30.5v-2038q0 -14 -17.5 -29.5t-27.5 -15.5h-281q-20 0 -33.5 20.5t-13.5 32.5z" />
<glyph unicode="^" horiz-adv-x="774" d="M72 1284q-2 29 32.5 69t85.5 107q16 23 37 49.5t39 53.5q10 12 24.5 33.5t31 41t34 35t31.5 15.5q23 0 34 -11.5t30 -38.5q59 -80 120.5 -159.5t120.5 -159.5q20 -29 8 -58.5t-49 -29.5q-8 0 -18 2t-19 12q-57 72 -112.5 148.5t-114.5 152.5q-29 -39 -59.5 -81t-61 -82 t-58.5 -76.5t-50 -63.5q-4 -4 -14.5 -8t-20.5 -4q-23 0 -37 15.5t-14 37.5z" />
<glyph unicode="_" horiz-adv-x="897" d="M0 -141q0 12 11.5 32.5t35.5 20.5h805q23 0 34 -19.5t11 -33.5q0 -16 -13.5 -34t-33.5 -18h-803q-23 0 -35 17.5t-12 34.5z" />
<glyph unicode="`" horiz-adv-x="274" d="M0 1628q0 18 13.5 38t41.5 20q18 0 36 -14.5t18 -35.5v-75q0 -49 13 -80t29.5 -50.5t30 -33t13.5 -27.5q0 -20 -14.5 -36.5t-39.5 -16.5q-31 0 -56.5 25.5t-43.5 62.5t-28.5 77t-10.5 68z" />
<glyph unicode="a" horiz-adv-x="1757" d="M0 51q0 4 21.5 51.5t57.5 119t80 161.5t89 180t87 173t73 145q39 80 87 175t100 197.5t104.5 208t101.5 203.5q6 10 20.5 16.5t24.5 6.5q6 0 19.5 -3.5t23.5 -19.5q102 -195 198.5 -390.5t194.5 -393.5q12 -27 48 -97.5t81 -162t94 -189.5t90 -181t68 -139.5t27 -60.5 q0 -23 -15.5 -37t-38.5 -14q-6 0 -12 2q-4 2 -10 3t-8 3q-14 10 -21.5 27.5t-15.5 34.5q-59 113 -114.5 227.5t-115.5 228.5h-989q-31 -63 -65.5 -132.5t-68.5 -137.5l-64.5 -129t-55.5 -107q-6 -10 -19.5 -15t-23.5 -5q-25 0 -39 16.5t-14 34.5zM403 633h883l-440 883z" />
<glyph unicode="b" horiz-adv-x="538" d="M0 43v1602q0 21 20 33q17 11 29 10h4q25 -2 53.5 -20.5t55 -43.5t47 -50.5t31.5 -41.5q29 -51 36 -88t7 -84q0 -51 -34 -125t-91 -125q80 -53 137 -117.5t94 -134.5t53.5 -141t16.5 -137q0 -111 -41 -215q-25 -61 -76 -126t-107.5 -118t-107.5 -87t-74 -34 q-16 0 -34.5 12.5t-18.5 30.5zM106 143q135 92 190.5 209t55.5 228q0 53 -13 110.5t-42 114.5t-76 110.5t-115 100.5v-873zM106 1210q20 18 37 43q13 23 25 55q10 27 10 64v14q-2 31 -19.5 72t-52.5 74v-322z" />
<glyph unicode="c" horiz-adv-x="1527" d="M0 844q0 174 66.5 327.5t181 268t268.5 181.5t330 67q78 0 161 -17.5t162.5 -49.5t151.5 -79t125 -106q8 -8 12 -25q1 -6 1 -12q1 -17 -13 -30q-18 -17 -41 -17q-8 0 -16.5 1t-14.5 7q-129 123 -263 173t-265 50q-154 0 -289 -58.5t-235 -158.5q-102 -100 -160 -236 q-57 -131 -56 -276v-10q2 -152 59.5 -287t157 -235.5t233.5 -159t290 -58.5q127 0 267 51.5t263 172.5q4 4 14.5 6t14.5 2q23 0 38 -15t15 -38q0 -16 -12 -33t-28.5 -32t-36 -28.5t-31.5 -23.5q-104 -80 -238.5 -123t-265.5 -43q-176 0 -331 66.5t-269.5 181t-180 268.5 t-65.5 328z" />
<glyph unicode="d" horiz-adv-x="530" d="M0 43v1602q0 20 19.5 31.5t33.5 11.5q29 0 73 -41t85 -91.5t71.5 -95.5t34.5 -51q31 -59 50.5 -103t33 -84t22.5 -80t19 -87q4 -20 8.5 -49t6.5 -58.5t3 -57.5t1 -48q0 -16 -1 -39t-2 -49.5t-4 -52t-8 -46.5q-14 -86 -39.5 -174t-72.5 -174q-16 -29 -42 -68.5t-54 -76.5 q-12 -16 -36 -44t-51.5 -53.5t-54 -45t-43.5 -19.5q-14 0 -33.5 10t-19.5 33zM106 172q39 31 81 98.5t78 146.5t58.5 154.5t22.5 124.5l10 146q0 37 -3 72.5t-7 70.5q-18 131 -69.5 265t-170.5 266v-1344z" />
<glyph unicode="e" d="M0 41v1604q0 16 17.5 29.5t31.5 13.5h363q18 0 32.5 -18.5t14.5 -35.5q0 -10 -11.5 -30.5t-33.5 -20.5h-308v-424h224q20 0 30.5 -20.5t10.5 -30.5q0 -14 -12.5 -33.5t-30.5 -19.5h-222v-951h306q20 0 33.5 -18.5t13.5 -34.5t-13.5 -33.5t-33.5 -17.5h-365 q-10 0 -28.5 13.5t-18.5 27.5z" />
<glyph unicode="f" horiz-adv-x="528" d="M0 41v1604q0 16 17.5 29.5t31.5 13.5h361q23 0 36 -19t13 -35t-13.5 -33.5t-33.5 -17.5h-306v-952h222q23 0 33 -20.5t10 -30.5q0 -20 -15.5 -37t-36.5 -17h-213v-483q0 -23 -19 -33t-34 -10q-12 0 -32.5 10t-20.5 31z" />
<glyph unicode="g" horiz-adv-x="1562" d="M0 844q0 176 66.5 329.5t181 268t268.5 180.5t330 66q166 0 326.5 -66t275.5 -188q4 -4 8 -14.5t4 -16.5q0 -20 -16.5 -36.5t-38.5 -16.5q-20 0 -31 10q-129 123 -264 173t-264 50q-154 0 -289 -58.5t-234.5 -158.5t-158 -235.5t-58.5 -286.5q0 -154 58.5 -289 t159 -235.5t235.5 -158t287 -57.5q125 0 254 45.5t252 157.5v219h-564q-20 0 -36.5 16.5t-16.5 37.5q0 10 12.5 30.5t30.5 20.5h639q16 0 29.5 -19.5t13.5 -29.5v-301q0 -23 -35.5 -55.5t-81 -63.5t-84 -54.5t-47.5 -25.5q-53 -18 -95 -33.5t-83 -27t-86 -16.5t-102 -5 q-176 0 -330 66.5t-268.5 180t-181 267.5t-66.5 330z" />
<glyph unicode="h" d="M0 41v1606q0 16 20.5 29.5t32.5 13.5q14 0 33.5 -13.5t19.5 -34.5v-481h246v484q0 20 21.5 32.5t32.5 12.5q12 0 32.5 -12.5t20.5 -32.5v-1602q0 -20 -21.5 -31.5t-31.5 -11.5q-14 0 -34 12.5t-20 30.5v1012h-246v-1010q0 -20 -19 -32.5t-34 -12.5q-12 0 -32.5 11.5 t-20.5 29.5z" />
<glyph unicode="i" horiz-adv-x="212" d="M0 63v1571q0 25 17.5 39.5t35.5 14.5q10 0 30.5 -11.5t22.5 -42.5v-1573q-2 -39 -20 -50t-35 -11q-18 0 -34.5 13.5t-16.5 49.5z" />
<glyph unicode="j" d="M0 219q0 25 12.5 43.5t40.5 18.5q29 0 40 -20.5t16 -55.5q6 -47 43.5 -74t76.5 -27q20 0 42 8.5t40.5 23t29.5 36t11 45.5v1419q0 23 16.5 37.5t37.5 14.5q18 0 35.5 -14.5t17.5 -37.5v-1419q0 -47 -20.5 -87t-53.5 -68.5t-74 -45t-82 -16.5q-43 0 -85 16.5t-73.5 46 t-51 69.5t-19.5 87z" />
<glyph unicode="k" horiz-adv-x="561" d="M0 41v1604q0 20 19.5 31.5t33.5 11.5q16 0 32.5 -11.5t20.5 -36.5v-307q43 84 83 166t85 166q6 13 30 21q9 3 18 3q13 0 22 -8q16 -12 23.5 -30.5t-7.5 -40.5q-82 -170 -142 -290t-107 -218q0 -2 9 -31t23.5 -72t32 -94t33.5 -100t29.5 -89t19.5 -59q14 -41 34.5 -101 t43 -125.5t44 -132.5t39 -120t29 -88t11.5 -39q0 -20 -15.5 -35.5t-37.5 -15.5q-8 0 -24.5 4t-23.5 21q-66 188 -126 375.5t-126 377.5v-731q-4 -23 -18 -35t-35 -12q-14 0 -33.5 11.5t-19.5 29.5z" />
<glyph unicode="l" horiz-adv-x="528" d="M0 41v1604q0 18 18.5 30.5t34.5 12.5t34.5 -12.5t18.5 -33.5v-1538h308q20 0 32.5 -19.5t12.5 -33.5q0 -16 -13.5 -33.5t-33.5 -17.5h-365q-12 0 -29.5 12.5t-17.5 28.5z" />
<glyph unicode="m" horiz-adv-x="1796" d="M0 43v1602q0 20 19.5 31.5t33.5 11.5q8 0 21.5 -4.5t19.5 -14.5q193 -375 377 -748.5t375 -748.5q188 373 371.5 742.5t371.5 742.5q6 12 23 24q6 4 17 5.5t18 1.5q14 0 28.5 -16.5t14.5 -29.5v-1599q0 -18 -17.5 -30.5t-34.5 -12.5q-20 0 -36.5 12.5t-16.5 32.5l-2 1362 q-178 -348 -348 -691t-344 -685q-4 -6 -15.5 -18.5t-29.5 -12.5q-14 0 -26.5 5t-20.5 22q-178 350 -347 691t-346 691v-1366q-10 -43 -53 -43q-14 0 -33.5 10t-19.5 33z" />
<glyph unicode="n" horiz-adv-x="1796" d="M0 43v1604q0 18 20.5 29.5t34.5 11.5q18 0 35 -13q184 -182 365.5 -364.5t363.5 -364.5q193 -193 382.5 -383t381.5 -383l2 1462q4 25 20.5 35.5t32.5 10.5t34 -12.5t18 -30.5v-1602q0 -14 -16.5 -28.5t-26.5 -14.5h-19q-4 0 -55 48t-127 122t-166 163t-172 172 t-147.5 148.5t-92.5 91.5q-193 190 -381 380t-378 380l-3 -1460q0 -14 -15 -29.5t-28 -15.5q-18 0 -40.5 10t-22.5 33z" />
<glyph unicode="o" horiz-adv-x="1759" d="M0 844q6 184 73.5 339.5t180.5 267.5t264.5 174.5t327.5 62.5t329.5 -67t268.5 -182.5t180.5 -269t65.5 -325.5q0 -176 -67 -331t-182.5 -268.5t-269 -179t-325.5 -65.5q-176 0 -332 66.5t-272 179.5q-114 114 -180 268q-62 145 -62 310v20zM104 821q0 -135 57.5 -264 t158 -229.5t236.5 -162t290 -61.5q152 0 286 57.5t235 157t159.5 234.5t58.5 291q0 152 -57.5 286t-157.5 235t-235.5 159.5t-288.5 58.5q-141 0 -274.5 -50t-237 -147.5t-166 -239.5t-64.5 -325z" />
<glyph unicode="p" horiz-adv-x="528" d="M0 49v1604q0 18 18.5 30.5t34.5 12.5q20 0 53 -19.5t66 -43t58.5 -45t31.5 -25.5q92 -94 135 -186.5t56 -184.5q4 -18 5 -46t1 -32q0 -94 -28 -178t-75 -155.5t-111.5 -130t-138.5 -97.5v-502q0 -20 -18 -32.5t-35 -12.5q-12 0 -32.5 10.5t-20.5 32.5zM106 678 q133 92 189.5 208.5t56.5 227.5q0 63 -18.5 127t-50 122t-76.5 106.5t-101 80.5v-872z" />
<glyph unicode="q" horiz-adv-x="1761" d="M0 811v68q0 111 30.5 208t79 176.5t104.5 142t108 103.5q231 182 512 182q20 0 40 -1q51 -2 121 -14.5t146 -40t152.5 -72.5t144.5 -113q76 -78 124 -155.5t75.5 -151.5t39 -139.5t15.5 -116.5q2 -26 2 -52q0 -141 -47 -269q-55 -150 -166 -281q51 -51 96 -96.5t92 -98.5 q23 -25 18.5 -51.5t-26.5 -36.5q-11 -3 -23 -3h-6q-16 1 -26 11q-51 47 -100.5 98.5t-98.5 100.5q-111 -92 -249 -150.5t-284 -58.5h-55q-158 0 -308.5 66.5t-260.5 177.5q-55 53 -100.5 119.5t-79 139t-52 151.5t-18.5 157zM106 807q6 -141 63.5 -264t156.5 -226 q111 -115 254 -164t299 -49q121 0 241.5 51.5t210.5 129.5l-131 131l-131 131q-6 6 -7 12t-3 10q-6 16 7 38t34 26q10 2 22.5 -1t18.5 -7q68 -66 133 -132.5t131 -132.5q59 63 96 132t56.5 135.5t24.5 131.5q4 46 4 90q0 17 -1 34q-2 63 -20.5 130.5t-48 133t-68.5 123 t-82 100.5q-68 63 -129 104.5t-120.5 64t-118 31.5t-119.5 13q-18 1 -36 1q-116 0 -224 -34q-125 -39 -232 -125q-47 -39 -99 -95t-94 -132t-68 -173q-21 -79 -21 -173q0 -22 1 -45z" />
<glyph unicode="r" horiz-adv-x="532" d="M0 49v1587q0 18 16.5 35t38.5 17q18 0 52 -17.5t72 -44.5t75 -61.5t61 -67.5q66 -86 105 -182t39 -209q0 -41 -3 -59.5t-5 -47.5q-6 -55 -33 -117.5t-69 -123t-97 -112.5t-121 -87q45 -72 102.5 -156t107.5 -159.5t84 -130t34 -62.5q0 -23 -14.5 -37t-36.5 -14 q-10 0 -23.5 4t-17.5 12q-66 96 -129.5 192.5t-128.5 192.5v-354q-4 -27 -20.5 -37t-33.5 -10q-20 0 -37.5 13.5t-17.5 35.5zM109 670q68 47 113.5 100t75.5 110.5t43 115t13 112.5q-2 78 -26 156q-23 66 -73 141.5t-146 138.5v-874z" />
<glyph unicode="s" horiz-adv-x="1234" d="M0 578q0 23 11.5 43t41.5 20q29 0 41 -19.5t12 -41.5q0 -88 36 -172t97.5 -149.5t143.5 -105.5t172 -40h53q92 0 174 41t143.5 107.5t96.5 151.5t35 175q0 92 -36 178t-98.5 152.5t-146.5 105.5t-182 39h-29q-61 0 -116.5 26.5t-96.5 71.5t-64.5 102.5t-23.5 116.5 q0 66 25.5 124.5t68.5 101.5t100.5 67.5t123.5 24.5q63 0 119.5 -23.5t99.5 -63.5t68.5 -95.5t29.5 -116.5q2 -10 1 -13.5t-1 -5.5q0 -23 -15.5 -38t-37.5 -15q-31 0 -47 27q-6 12 -7 24.5t-1 34.5q0 37 -19.5 68.5t-50.5 56.5t-68 39t-71 14q-45 0 -83 -16t-67 -45t-45 -68 t-16 -82q0 -80 30.5 -121.5t67.5 -62.5q43 -23 98 -27h43q106 -2 205.5 -47t176.5 -119.5t124 -174t47 -210.5v-63q0 -115 -50 -214t-132 -174t-186.5 -118t-212.5 -43q-117 0 -222.5 45t-185.5 123t-127 181.5t-47 222.5z" />
<glyph unicode="t" horiz-adv-x="528" d="M0 1636q0 18 13.5 35t35.5 17h361q23 0 36 -19t13 -35t-13.5 -33.5t-33.5 -17.5h-129v-1538q0 -20 -18.5 -32.5t-35.5 -12.5q-14 0 -33.5 11.5t-19.5 31.5v1540h-131q-23 0 -34 19.5t-11 33.5z" />
<glyph unicode="u" horiz-adv-x="565" d="M0 211v1434q0 23 19.5 34t33.5 11q16 0 34.5 -11.5t18.5 -33.5v-1422q0 -53 38 -86t85 -33q45 0 84 33t39 84v1421q0 23 18.5 35.5t35.5 12.5q18 0 35.5 -13.5t17.5 -36.5v-1421q0 -47 -19.5 -88t-52.5 -69.5t-74 -45t-84 -16.5q-47 0 -89 18.5t-72.5 47t-49 66.5 t-18.5 79z" />
<glyph unicode="v" horiz-adv-x="528" d="M0 1632q0 23 14.5 39.5t38.5 16.5q20 0 31.5 -9.5t16.5 -24t6.5 -28.5t1.5 -22l120 -1067l121 1097q0 23 16.5 38.5t39.5 15.5q25 0 39 -17t14 -37l-174 -1581q0 -23 -17.5 -38t-38.5 -15q-25 0 -39 15.5t-14 37.5z" />
<glyph unicode="w" horiz-adv-x="1759" d="M0 1634q0 20 15.5 36t37.5 16q10 0 24.5 -3.5t18.5 -17.5q20 -76 58.5 -223.5t85.5 -338t101 -406.5t108 -427q92 344 175 692.5t173 692.5q4 14 21.5 22.5t27.5 8.5t27.5 -7.5t21.5 -23.5q88 -348 173 -691t173 -694q41 154 78 305.5t76 305.5q47 195 96 386t96 386 q4 14 19.5 23.5t29.5 9.5q23 0 39.5 -17t14.5 -35q0 -12 -13.5 -70.5t-35 -142.5t-45 -180t-47 -184t-41 -158t-23.5 -96q-47 -190 -97.5 -393t-99.5 -387q-4 -10 -17.5 -17.5t-29.5 -7.5t-29.5 5t-17.5 22q-92 346 -176 692t-172 696q-14 -49 -30.5 -117.5t-31.5 -121.5 q-25 -96 -52 -210t-56 -232t-57.5 -230.5t-53 -208.5t-43 -168t-28.5 -105q-4 -10 -18.5 -16t-26.5 -6q-10 0 -24.5 4t-21.5 21q-10 31 -32.5 120.5t-51 204.5t-59.5 238t-55 221q-45 182 -91 362.5t-89 362.5q-6 23 -15.5 51.5t-9.5 50.5z" />
<glyph unicode="x" horiz-adv-x="645" d="M0 51l236 1057l-119 526q4 27 19.5 40.5t33.5 13.5q31 0 43 -23t16 -51q6 -41 19 -80q10 -41 17 -81t24 -99q10 41 17 74.5t18 80.5q4 25 12 52.5t12 56.5q4 31 17.5 50.5t40.5 19.5q18 0 35.5 -14.5t17.5 -39.5l-117 -528l233 -1055q-2 -25 -18 -38t-35 -13 q-10 0 -25.5 9t-19.5 26q-6 25 -19.5 78t-29.5 123.5t-34.5 153.5t-37 167t-36 163t-31.5 140q-37 -150 -82 -349.5t-107 -471.5q-4 -16 -19 -27.5t-28 -11.5q-16 0 -33.5 11.5t-19.5 39.5z" />
<glyph unicode="y" horiz-adv-x="526" d="M0 1632q0 23 16.5 38.5t38.5 15.5q8 0 23.5 -6.5t19.5 -18.5q12 -55 25.5 -137t30 -180.5t35 -211t38.5 -229.5q41 223 70 412.5t59 341.5q4 12 21.5 20.5t28.5 8.5q18 0 34.5 -14.5t18.5 -37.5l-176 -1056v-535q0 -23 -20.5 -34t-33.5 -11q-23 0 -39 16.5t-16 34.5v529 l-160 974q-4 20 -9 48t-5 32z" />
<glyph unicode="z" d="M0 49l340 1528l-4 4h-295q-20 0 -30.5 21.5t-10.5 31.5q0 20 16.5 36t36.5 16h355q16 0 31.5 -12.5t19.5 -39.5l-340 -1532h293q18 0 32.5 -18.5t14.5 -34.5q0 -10 -11.5 -30.5t-31.5 -20.5h-371q-14 0 -29.5 16.5t-15.5 34.5z" />
<glyph unicode="{" horiz-adv-x="704" d="M0 844q0 18 12.5 33.5t30.5 15.5q43 2 83 18.5t70.5 44t49 64.5t18.5 78v475q0 57 26.5 110.5t69.5 93.5t97.5 63.5t107.5 23.5q16 0 40 -6.5t26 -40.5q2 -14 -4 -26.5t-17 -21.5q-8 -6 -21.5 -7t-31.5 -3t-39.5 -8t-46.5 -25q-39 -27 -69.5 -68.5t-30.5 -101.5v-469 q0 -27 -10.5 -61.5t-29 -68t-44 -64.5t-58.5 -49q31 -18 57.5 -49t45 -65t29 -68.5t10.5 -61.5v-563q0 -43 18.5 -79t49 -61.5t69.5 -41t82 -15.5q12 0 28.5 -15.5t12.5 -35.5q-4 -29 -19.5 -41t-36.5 -12q-66 2 -122 28.5t-98 68.5t-66.5 92t-24.5 102v563q0 39 -18.5 77 t-50 66.5t-71.5 45t-83 16.5q-20 0 -29.5 16t-11.5 33z" />
<glyph unicode="|" horiz-adv-x="352" d="M72 -217v2036q0 20 17 32.5t34 12.5q25 0 40 -17.5t15 -36.5v-2019q0 -23 -16.5 -39t-38.5 -16q-14 0 -32.5 12t-18.5 35z" />
<glyph unicode="}" horiz-adv-x="704" d="M2 -211q-2 20 13.5 35.5t27.5 15.5q41 0 81 15.5t70.5 41t49 61.5t18.5 79v563q0 27 10.5 61.5t28.5 68.5t44 64.5t56 49.5q-31 18 -56.5 49t-43.5 64.5t-28.5 68.5t-10.5 61v469q0 59 -30.5 101.5t-69.5 68.5q-25 18 -46.5 24.5t-40 8.5t-31.5 3t-21 7q-10 8 -16.5 20.5 t-4.5 27.5q2 35 25.5 41t40.5 6q53 0 106 -23.5t96 -63.5t70 -93.5t27 -110.5v-475q0 -41 18 -78t49 -64.5t72 -44t84 -18.5q18 0 30.5 -15.5t10.5 -33.5q0 -16 -10.5 -32.5t-28.5 -16.5q-43 0 -84 -16.5t-71.5 -45t-50 -66.5t-19.5 -77v-563q0 -51 -25 -101.5t-67 -92.5 t-98 -68.5t-120 -28.5q-20 0 -35.5 12t-19.5 41z" />
<glyph unicode="~" horiz-adv-x="880" d="M0 578q0 27 35 51q39 27 100.5 42t100.5 15q68 -2 108.5 -19.5t73.5 -37t67.5 -35.5t94.5 -16q37 0 65.5 8t49 18t35.5 18.5t26 8.5q31 0 45 -27q12 -20 4 -40t-31 -36t-51.5 -26t-57 -17.5t-52 -10.5t-31.5 -3q-70 0 -114 17.5t-78 37t-67.5 37t-84.5 17.5 q-41 0 -70 -8.5t-50.5 -19.5t-36.5 -19.5t-28 -8.5q-23 0 -38 15.5t-15 38.5z" />
<glyph unicode="&#xa4;" horiz-adv-x="776" d="M72 315q-4 25 12 37.5t45 42.5q-31 47 -44 92t-13 93q0 39 13 89t44 93q-29 33 -43 45t-14 37q0 27 17 40t40 13q18 0 37.5 -21.5t38.5 -37.5q10 8 29.5 18t43 19.5t48 15.5t45.5 6q47 0 100 -11.5t100 -47.5q33 31 46.5 45t41.5 14q20 0 33 -19.5t13 -33.5 q0 -25 -16.5 -39t-41.5 -41q31 -45 44.5 -92t13.5 -92t-14.5 -93.5t-43.5 -89.5q29 -33 43.5 -45t14.5 -39q0 -14 -11.5 -30.5t-34.5 -18.5q-31 -4 -46 14.5t-42 40.5q-35 -23 -81 -38t-99 -17q-47 -2 -95 11.5t-91 43.5q-23 -16 -38 -35.5t-36 -19.5q-23 0 -40 12.5 t-19 38.5zM178 580q0 -41 15.5 -80t43 -68t66.5 -46t86 -17q43 0 81 16t66.5 45t45 67t16.5 83q0 43 -16.5 81.5t-45 67.5t-66.5 45.5t-81 16.5q-45 0 -84 -16.5t-66.5 -46.5t-44 -67.5t-16.5 -80.5z" />
<glyph unicode="&#xa7;" horiz-adv-x="731" d="M72 799q0 82 39 174t135 164q-80 59 -129 146t-45 190q4 94 36.5 161.5t70.5 111.5t71 65.5t35 23.5q14 10 30.5 19.5t32.5 9.5q25 0 42.5 -19.5t10.5 -44.5q-6 -25 -39.5 -42t-73.5 -46t-74 -80t-40 -141t33 -152.5t92 -106.5t107.5 -74t78.5 -54q68 -68 105 -132.5 t37 -160.5q0 -41 -9.5 -87t-31 -92t-54 -90t-79.5 -79q94 -72 136 -165t40 -173q-2 -72 -34 -141.5t-75 -125t-91 -89t-81 -33.5q-18 0 -35.5 15.5t-17.5 37.5q0 8 4 21.5t20 21.5q53 27 91.5 63.5t63 76.5t35.5 80t11 73q0 92 -42 152.5t-99 102.5t-113.5 73.5t-85.5 68.5 q-55 70 -81.5 136.5t-26.5 140.5zM176 799q0 -27 8.5 -64t28.5 -77t53 -75.5t82 -60.5q66 41 117 109t55 168q4 61 -25.5 125.5t-97.5 119.5q-10 10 -27.5 21.5t-21.5 11.5q-49 -23 -82 -58.5t-53 -74.5t-28.5 -77t-8.5 -68z" />
<glyph unicode="&#xa9;" horiz-adv-x="1796" d="M0 842q0 168 64.5 321.5t178 269t268.5 184.5t335 69q176 0 329.5 -67t268.5 -181.5t180.5 -268t65.5 -327.5q0 -160 -62.5 -311.5t-173.5 -269.5t-260.5 -189.5t-323.5 -71.5q-172 0 -329.5 58.5t-277.5 168t-191.5 265t-71.5 350.5zM106 842q0 -145 54.5 -278.5 t154 -236t240.5 -163t315 -60.5q150 0 280 60.5t226.5 163t152.5 236t56 278.5q0 150 -57.5 285t-157.5 235t-235.5 159.5t-288.5 59.5q-156 0 -291 -59.5t-234.5 -160.5t-157 -235.5t-57.5 -283.5zM264 842q0 127 49 232.5t128 181t178.5 119.5t199.5 48q49 2 104.5 -6 t111 -26.5t105.5 -48t91 -68.5q16 -16 31.5 -38t-7.5 -50q-18 -23 -37.5 -20t-35.5 16q-20 14 -52 37.5t-73 45t-94.5 37t-116.5 15.5q-98 0 -185.5 -38t-152 -102.5t-101 -151.5t-36.5 -183t36.5 -182.5t100 -151t148.5 -102t182 -37.5q94 0 187 34.5t157 106.5q2 4 11 8 t20.5 5t22.5 -3t21 -16q12 -18 11.5 -33.5t-9 -28t-18.5 -24t-18 -19.5q-27 -29 -69 -53t-90 -42.5t-97 -30t-88 -11.5q-123 -2 -235 38t-197 117t-134 184.5t-49 240.5z" />
<glyph unicode="&#xab;" horiz-adv-x="651" d="M0 578q0 8 21.5 44.5t52 84t62.5 93.5t52 74q6 10 18.5 14.5t22.5 4.5q23 0 39.5 -14.5t16.5 -36.5q0 -10 -21.5 -45t-50.5 -77t-56.5 -83t-39.5 -59q16 -25 43.5 -66t55.5 -82t48.5 -75t20.5 -42q0 -20 -16.5 -36.5t-39.5 -16.5q-6 0 -16 2t-18 10q-2 2 -16.5 23.5 t-37 52.5t-47 68t-45 70.5t-35 58t-14.5 33.5zM264 578q0 8 19.5 41.5t48 76.5t61.5 91.5t60 86.5q6 10 18 14.5t23 4.5q20 0 36.5 -14.5t16.5 -36.5q0 -12 -25.5 -53t-56.5 -87.5t-56.5 -83t-25.5 -40.5t25.5 -41t56.5 -83t56.5 -87.5t25.5 -53.5q0 -23 -16.5 -38 t-36.5 -15q-8 0 -19.5 3t-17.5 13q-4 4 -34 48.5t-65.5 96.5t-64.5 99t-29 58z" />
<glyph unicode="&#xac;" horiz-adv-x="2048" />
<glyph unicode="&#xad;" d="M0 575q0 16 12.5 36t34.5 20h365q18 0 32.5 -18.5t14.5 -34.5q0 -14 -13.5 -34t-33.5 -20h-365q-23 0 -35 19.5t-12 31.5z" />
<glyph unicode="&#xae;" horiz-adv-x="1796" d="M0 842q0 168 63.5 320.5t177 269t268.5 185.5t337 69q193 0 348.5 -73t265 -193t170 -275.5t60.5 -321.5q0 -178 -71 -328.5t-189.5 -261t-270 -173t-313.5 -62.5q-178 0 -333 67.5t-268.5 182t-179 268.5t-65.5 326zM106 842q0 -145 56.5 -278.5t154 -236t227.5 -163 t277 -60.5q156 0 295 53.5t243.5 151t165 233.5t60.5 300q0 152 -58.5 286t-158.5 235t-234.5 159.5t-287.5 58.5q-156 0 -291 -59.5t-234.5 -160.5t-157 -235.5t-57.5 -283.5zM731 311v1059q0 29 19.5 41t40.5 12q4 0 20 -8t27 -14q20 -10 44.5 -28.5t48 -40t44 -45 t33.5 -46.5q25 -41 35 -69.5t20 -61.5q6 -27 7 -47.5t1 -44.5q0 -92 -32.5 -162t-71.5 -116t-72 -70l-33 -25q0 -4 15.5 -26.5t39 -56.5t50 -73.5t50 -75.5t39 -64t15.5 -36q0 -23 -14.5 -38t-36.5 -15h-10q-10 0 -33 28.5t-48.5 66.5t-50 76t-38.5 58l-2 -178 q-2 -20 -14.5 -34.5t-28.5 -14.5q-4 0 -11.5 -1t-9.5 -1q-18 0 -30.5 20.5t-12.5 30.5zM838 762q72 59 100.5 126t28.5 128q0 4 -1 21.5t-3 27.5q-8 49 -38 105.5t-87 103.5v-512z" />
<glyph unicode="&#xb0;" horiz-adv-x="565" d="M35 1634q0 47 18.5 89t49 73t72.5 49.5t91 18.5q47 0 89 -18.5t73 -49.5t48.5 -73t17.5 -89q0 -49 -18.5 -90t-49.5 -71.5t-72 -48t-88 -17.5q-49 0 -91 18.5t-72.5 49t-49 71.5t-18.5 88zM141 1634q0 -51 37 -87t88 -36t87 36t36 87t-36 87t-89 36q-49 0 -86 -35.5 t-37 -87.5z" />
<glyph unicode="&#xb1;" horiz-adv-x="776" d="M35 1110q0 12 12 32.5t33 20.5h219v213q0 23 18.5 36t34.5 13t35 -11t19 -34v-217h219q18 0 31.5 -19.5t13.5 -33.5q0 -16 -13.5 -34.5t-33.5 -18.5h-217v-215q0 -23 -17.5 -36t-36.5 -13q-20 0 -36.5 15t-16.5 36v213h-217q-20 0 -33.5 18.5t-13.5 34.5zM37 580 q0 12 11 32.5t36 20.5h537q23 0 36 -18.5t13 -34.5t-14.5 -35t-30.5 -19h-543q-23 0 -34 18.5t-11 35.5z" />
<glyph unicode="&#xb5;" horiz-adv-x="704" d="M0 -219v1337q0 18 19.5 30.5t33.5 12.5q16 0 34.5 -14t18.5 -33v-901q0 -25 12.5 -45.5t31 -33.5t40 -21.5t39.5 -8.5q43 0 83 32t40 83v897q0 20 19.5 32.5t34.5 12.5q12 0 32.5 -12t20.5 -33v-899q0 -27 23.5 -63.5t64.5 -44.5q37 -6 62.5 -14.5t25.5 -43.5 q0 -27 -18.5 -39t-38.5 -12q-45 0 -89.5 18.5t-82.5 61.5q-39 -47 -87.5 -63.5t-89.5 -16.5q-23 0 -57.5 7t-62.5 28l-3 -250q-4 -23 -18 -36t-35 -13q-10 0 -31.5 11t-21.5 34z" />
<glyph unicode="&#xb6;" horiz-adv-x="600" d="M0 1370q0 74 25.5 128t57.5 91t58.5 55.5t28.5 18.5q14 8 26.5 14t24.5 11h17q12 0 28.5 -15.5t16.5 -25.5l-2 -1858q0 -31 -18.5 -42t-31.5 -11q-18 0 -36.5 12t-18.5 35v1292q-39 20 -71.5 52t-55 71t-36 83t-13.5 89zM107.5 1361.5q1.5 -24.5 3.5 -28.5q4 -27 12 -43 q16 -45 53 -82v326q-31 -23 -45 -54.5t-19.5 -62.5t-4 -55.5zM352 -217v1847q0 31 20.5 45.5t35.5 14.5q18 0 34.5 -17.5t16.5 -38.5v-1845q2 -18 -13.5 -35.5t-37.5 -17.5q-18 0 -28.5 8t-17 17.5t-8.5 16.5t-2 5z" />
<glyph unicode="&#xb7;" horiz-adv-x="491" d="M37 582q0 37 13 68.5t38 55t56.5 38t68.5 14.5t68.5 -14.5t55 -38t37 -55.5t13.5 -68q0 -37 -13.5 -70t-37 -56.5t-55 -38t-68.5 -14.5q-74 0 -125 52.5t-51 126.5z" />
<glyph unicode="&#xbb;" horiz-adv-x="651" d="M0 313q0 12 25.5 53.5t57.5 87.5t57.5 82.5t25.5 41.5q0 4 -25.5 40.5t-57.5 83t-57.5 87t-25.5 53.5q0 23 16.5 37t38.5 14q10 0 22.5 -4t18.5 -15q27 -39 59.5 -87t61.5 -91t48.5 -76.5t19.5 -41.5q0 -10 -29 -57.5t-64.5 -99.5t-66.5 -96t-33 -49q-6 -10 -17.5 -13 t-19.5 -3q-23 0 -39 15t-16 38zM264 313q0 8 20.5 42t48 75t55.5 82t44 66q-12 18 -39.5 59t-56.5 83t-50.5 76.5t-21.5 45.5q0 23 16.5 37t38.5 14q10 0 22.5 -4t18.5 -15q20 -29 52 -74.5t62 -93t51.5 -84t21.5 -44.5t-14.5 -33t-35 -58.5t-45 -70.5t-46 -68t-36 -52.5 t-16.5 -23.5q-8 -8 -19 -10t-16 -2q-23 0 -39 16.5t-16 36.5z" />
<glyph unicode="&#x2c6;" horiz-adv-x="600" d="M72 1634q0 10 3 20.5t9 16.5q45 45 89 90t91 88q10 12 22.5 13.5t24.5 1.5q10 0 23.5 -12.5t17.5 -16.5q37 -37 79 -78t85 -88q8 -6 12 -18q6 -27 -9 -47.5t-44 -20.5q-12 0 -36.5 20.5t-52.5 47t-52.5 51t-32.5 33.5q-23 -18 -48.5 -45t-49 -50.5t-45 -40t-33.5 -16.5 h-12q-18 0 -29.5 19.5t-11.5 31.5z" />
<glyph unicode="&#x2dc;" horiz-adv-x="2048" />
<glyph unicode="&#x2000;" horiz-adv-x="932" />
<glyph unicode="&#x2001;" horiz-adv-x="1864" />
<glyph unicode="&#x2002;" horiz-adv-x="932" />
<glyph unicode="&#x2003;" horiz-adv-x="1864" />
<glyph unicode="&#x2004;" horiz-adv-x="621" />
<glyph unicode="&#x2005;" horiz-adv-x="466" />
<glyph unicode="&#x2006;" horiz-adv-x="310" />
<glyph unicode="&#x2007;" horiz-adv-x="310" />
<glyph unicode="&#x2008;" horiz-adv-x="233" />
<glyph unicode="&#x2009;" horiz-adv-x="372" />
<glyph unicode="&#x200a;" horiz-adv-x="103" />
<glyph unicode="&#x2010;" d="M0 575q0 16 12.5 36t34.5 20h365q18 0 32.5 -18.5t14.5 -34.5q0 -14 -13.5 -34t-33.5 -20h-365q-23 0 -35 19.5t-12 31.5z" />
<glyph unicode="&#x2011;" d="M0 575q0 16 12.5 36t34.5 20h365q18 0 32.5 -18.5t14.5 -34.5q0 -14 -13.5 -34t-33.5 -20h-365q-23 0 -35 19.5t-12 31.5z" />
<glyph unicode="&#x2012;" d="M0 575q0 16 12.5 36t34.5 20h365q18 0 32.5 -18.5t14.5 -34.5q0 -14 -13.5 -34t-33.5 -20h-365q-23 0 -35 19.5t-12 31.5z" />
<glyph unicode="&#x2013;" horiz-adv-x="704" d="M0 575q0 18 12.5 37t34.5 19h541q23 0 35 -18.5t12 -34.5t-13.5 -35t-33.5 -19h-541q-23 0 -35 18.5t-12 32.5z" />
<glyph unicode="&#x2014;" horiz-adv-x="880" d="M0 578q0 20 15.5 36.5t39.5 16.5h701q23 0 39 -16.5t16 -36.5q0 -14 -13.5 -34t-29.5 -20h-723q-23 0 -34 19.5t-11 34.5z" />
<glyph unicode="&#x2018;" horiz-adv-x="274" d="M0 1374l2 76q0 31 10.5 71t28.5 76.5t44 62.5t56 26q25 0 39.5 -16.5t14.5 -37.5q0 -16 -13.5 -29.5t-30 -32t-29.5 -49t-13 -79.5v-78q0 -18 -17.5 -32.5t-36.5 -14.5q-29 0 -42 19.5t-13 37.5z" />
<glyph unicode="&#x2019;" horiz-adv-x="274" d="M0 1370q0 14 13.5 27.5t30.5 33t30.5 50t13.5 80.5v75q0 20 17.5 35t35.5 15q27 0 40.5 -20t13.5 -38l-2 -78q0 -29 -10.5 -68.5t-29 -76.5t-44 -62.5t-56.5 -25.5q-25 0 -39 16.5t-14 36.5z" />
<glyph unicode="&#x201a;" horiz-adv-x="262" d="M0 -209q0 14 13.5 27.5t30.5 32t30.5 49t13.5 80.5v75q0 20 17.5 34.5t35.5 14.5q27 0 40.5 -19.5t13.5 -39.5l-2 -74q4 -27 -6.5 -66.5t-30 -77.5t-46 -64.5t-57.5 -26.5q-25 0 -39 16.5t-14 38.5z" />
<glyph unicode="&#x201c;" horiz-adv-x="452" d="M0 1374l2 76q0 27 10.5 68t28.5 77.5t44 63.5t56 27q25 0 39.5 -16.5t14.5 -37.5q0 -16 -13.5 -29.5t-30 -32t-29.5 -49t-13 -79.5v-78q0 -18 -17.5 -32.5t-36.5 -14.5q-29 0 -42 19.5t-13 37.5zM172 1374l2 76q0 31 10.5 71t28.5 76.5t45 62.5t57 26q25 0 38.5 -16.5 t13.5 -37.5q0 -16 -13.5 -29.5t-30 -32t-29.5 -49t-13 -79.5v-78q0 -18 -17.5 -32.5t-36.5 -14.5q-29 0 -42 19.5t-13 37.5z" />
<glyph unicode="&#x201d;" horiz-adv-x="452" d="M0 1370q0 14 13.5 27.5t30.5 33t30.5 50t13.5 80.5v75q0 20 17.5 35t35.5 15q27 0 40.5 -20t13.5 -38l-2 -78q0 -29 -10.5 -68.5t-29 -76.5t-44 -62.5t-56.5 -25.5q-25 0 -39 16.5t-14 36.5zM172 1370q0 14 13.5 27.5t30.5 33t30.5 50t13.5 80.5v75q0 20 17.5 35t35.5 15 q27 0 40.5 -20t13.5 -38l-2 -78q0 -27 -10.5 -66.5t-29 -76.5t-44 -63.5t-56.5 -26.5q-25 0 -39 16.5t-14 36.5z" />
<glyph unicode="&#x201e;" horiz-adv-x="452" d="M0 -211q0 16 13.5 29.5t30.5 32t30.5 49t13.5 80.5v75q0 18 17.5 32.5t35.5 14.5q27 0 40.5 -19.5t13.5 -37.5l-2 -74q0 -31 -10.5 -70.5t-29 -76.5t-44 -62.5t-56.5 -25.5q-25 0 -39 16.5t-14 36.5zM172 -211q0 16 13.5 29.5t30.5 32t30.5 49t13.5 80.5v75 q0 18 17.5 32.5t35.5 14.5q27 0 40.5 -19.5t13.5 -37.5l-2 -74q0 -29 -10.5 -68.5t-29 -76.5t-44 -63.5t-56.5 -26.5q-25 0 -39 16.5t-14 36.5z" />
<glyph unicode="&#x2022;" horiz-adv-x="845" d="M35 580q0 74 27.5 137t75.5 111.5t111.5 76t137.5 27.5t138.5 -27.5t112.5 -76t75.5 -111.5t27.5 -137t-28.5 -138.5t-76.5 -112.5t-111.5 -75t-135.5 -27q-74 0 -138.5 28t-112.5 76t-75.5 111.5t-27.5 137.5z" />
<glyph unicode="&#x2026;" horiz-adv-x="581" d="M37 53q0 23 15.5 37t37.5 14q23 0 37 -14t14 -37t-14 -38t-37 -15t-38 15t-15 38zM221 53q0 23 15.5 37t37.5 14q23 0 37.5 -14t14.5 -37t-14.5 -38t-37.5 -15t-38 15t-15 38zM406 53q0 23 15 37t38 14t37 -14t14 -37t-14.5 -38t-36.5 -15q-23 0 -38 15t-15 38z" />
<glyph unicode="&#x202f;" horiz-adv-x="372" />
<glyph unicode="&#x205f;" horiz-adv-x="466" />
<glyph unicode="&#x2122;" horiz-adv-x="1277" d="M45 1634q0 16 13.5 35t35.5 19h363q18 0 32.5 -18t14.5 -36q0 -10 -11.5 -30.5t-33.5 -20.5h-131v-479q0 -23 -17.5 -36t-36.5 -13q-20 0 -36.5 13t-16.5 36v479h-131q-20 0 -32.5 20.5t-12.5 30.5zM573 1102v538q6 29 23.5 38.5t30.5 9.5q10 0 23.5 -4.5t19.5 -16.5 q57 -111 111.5 -220.5t109.5 -219.5q47 90 99 199.5t124 242.5q4 8 17.5 13.5t23.5 5.5q14 0 32.5 -11.5t20.5 -34.5v-542q0 -20 -19.5 -32.5t-35.5 -12.5q-23 0 -37 16t-14 39v297q-47 -84 -87 -168t-87 -170q-4 -6 -16.5 -10t-20.5 -4q-12 0 -23.5 2t-19.5 18 q-45 82 -86 166l-82 168l-2 -305q0 -27 -17.5 -38t-33.5 -11t-35 13t-19 34z" />
<glyph unicode="&#x25fc;" horiz-adv-x="1689" d="M0 0v1690h1690v-1690h-1690z" />
</font>
</defs>
</svg>
