<?xml version="1.0" encoding="utf-8"?>
<!-- Generator: Avocode 2.4.5 - http://avocode.com -->
<svg height="34" width="34" xmlns:xlink="http://www.w3.org/1999/xlink" xmlns="http://www.w3.org/2000/svg" viewBox="0 0 34 34">
    <path fill="#ffffff" fill-rule="evenodd" d="M 25.67 31.29 C 25.67 31.29 25.67 29.39 25.67 29.39 C 25.67 28.41 25.47 27.48 25.15 26.6 C 27.96 24.33 29.8 20.9 29.8 17.01 C 29.8 10.17 24.26 4.63 17.42 4.63 C 10.58 4.63 5.04 10.17 5.04 17.01 C 5.04 20.9 6.87 24.33 9.68 26.6 C 9.37 27.48 9.17 28.41 9.17 29.39 C 9.17 29.39 9.17 31.29 9.17 31.29 C 4.24 28.43 0.92 23.11 0.92 17.01 C 0.92 7.89 8.3 0.51 17.42 0.51 C 26.53 0.51 33.92 7.89 33.92 17.01 C 33.92 23.11 30.6 28.43 25.67 31.29 Z M 17.42 6.7 C 23.12 6.7 27.74 11.31 27.74 17.01 C 27.74 20.09 26.36 22.83 24.21 24.72 C 23.42 23.56 22.32 22.64 21.04 22.01 C 22.59 20.88 23.61 19.07 23.61 17.01 C 23.61 13.59 20.84 10.82 17.42 10.82 C 14 10.82 11.23 13.59 11.23 17.01 C 11.23 19.07 12.25 20.88 13.8 22.01 C 12.52 22.64 11.42 23.56 10.63 24.72 C 8.48 22.83 7.1 20.09 7.1 17.01 C 7.1 11.31 11.72 6.7 17.42 6.7 Z M 13.29 17.01 C 13.29 14.73 15.14 12.88 17.42 12.88 C 19.7 12.88 21.55 14.73 21.55 17.01 C 21.55 19.29 19.7 21.14 17.42 21.14 C 15.14 21.14 13.29 19.29 13.29 17.01 Z M 17.42 23.2 C 20.84 23.2 23.61 25.97 23.61 29.39 C 23.61 29.39 23.61 33.51 23.61 33.51 C 23.61 33.51 11.23 33.51 11.23 33.51 C 11.23 33.51 11.23 29.39 11.23 29.39 C 11.23 25.97 14 23.2 17.42 23.2 Z" />
</svg>